<svg width="50" height="50" viewBox="0 0 50 50" fill="none" xmlns="http://www.w3.org/2000/svg">
<path d="M13.6251 10.4165C13.7501 12.2707 14.0626 14.0832 14.5626 15.8124L12.0626 18.3124C11.2085 15.8124 10.6668 13.1665 10.4793 10.4165H13.6251ZM34.1668 35.4582C35.9376 35.9582 37.7501 36.2707 39.5835 36.3957V39.4999C36.8335 39.3124 34.1876 38.7707 31.6668 37.9374L34.1668 35.4582ZM15.6251 6.24988H8.33346C7.18762 6.24988 6.25012 7.18738 6.25012 8.33321C6.25012 27.8957 22.1043 43.7499 41.6668 43.7499C42.8126 43.7499 43.7501 42.8124 43.7501 41.6665V34.3957C43.7501 33.2499 42.8126 32.3124 41.6668 32.3124C39.0835 32.3124 36.5626 31.8957 34.2293 31.1249C34.0225 31.0499 33.8034 31.0145 33.5835 31.0207C33.0418 31.0207 32.521 31.229 32.1043 31.6249L27.521 36.2082C21.6156 33.1882 16.8118 28.3844 13.7918 22.479L18.3751 17.8957C18.9585 17.3124 19.1251 16.4999 18.896 15.7707C18.1056 13.3708 17.7047 10.8599 17.7085 8.33321C17.7085 7.18738 16.771 6.24988 15.6251 6.24988Z" fill="white"/>
</svg>
