<svg width="50" height="50" viewBox="0 0 50 50" fill="none" xmlns="http://www.w3.org/2000/svg">
<path d="M25 4.16663C36.5063 4.16663 45.8333 13.4937 45.8333 25C45.8333 36.5062 36.5063 45.8333 25 45.8333C13.4938 45.8333 4.16667 36.5062 4.16667 25C4.16667 13.4937 13.4938 4.16663 25 4.16663ZM25 8.33329C20.5797 8.33329 16.3405 10.0892 13.2149 13.2148C10.0893 16.3405 8.33334 20.5797 8.33334 25C8.33334 29.4202 10.0893 33.6595 13.2149 36.7851C16.3405 39.9107 20.5797 41.6666 25 41.6666C29.4203 41.6666 33.6595 39.9107 36.7851 36.7851C39.9107 33.6595 41.6667 29.4202 41.6667 25C41.6667 20.5797 39.9107 16.3405 36.7851 13.2148C33.6595 10.0892 29.4203 8.33329 25 8.33329ZM25 12.5C25.5103 12.5 26.0028 12.6874 26.3841 13.0264C26.7654 13.3655 27.0091 13.8328 27.0688 14.3395L27.0833 14.5833V24.1375L32.7229 29.777C33.0966 30.152 33.3135 30.655 33.3296 31.1841C33.3458 31.7132 33.16 32.2285 32.8099 32.6255C32.4598 33.0225 31.9718 33.2714 31.4448 33.3216C30.9179 33.3718 30.3917 33.2196 29.9729 32.8958L29.7771 32.7229L23.5271 26.4729C23.2033 26.1488 22.9953 25.727 22.9354 25.2729L22.9167 25V14.5833C22.9167 14.0308 23.1362 13.5009 23.5269 13.1102C23.9176 12.7195 24.4475 12.5 25 12.5Z" fill="white"/>
</svg>
