<svg width="50" height="50" viewBox="0 0 50 50" fill="none" xmlns="http://www.w3.org/2000/svg">
<path d="M13.2292 31.9792L8.85417 27.5C10.9028 25.4514 13.3076 23.8285 16.0687 22.6313C18.8299 21.4341 21.8069 20.8348 25 20.8334C28.1944 20.8334 31.1722 21.441 33.9333 22.6563C36.6944 23.8716 39.0986 25.5209 41.1458 27.6042L36.7708 31.9792C35.2431 30.4514 33.4722 29.2535 31.4583 28.3855C29.4444 27.5174 27.2917 27.0834 25 27.0834C22.7083 27.0834 20.5556 27.5174 18.5417 28.3855C16.5278 29.2535 14.7569 30.4514 13.2292 31.9792ZM4.375 23.125L0 18.75C3.19444 15.4862 6.92708 12.9341 11.1979 11.0938C15.4687 9.25351 20.0694 8.33337 25 8.33337C29.9306 8.33337 34.5312 9.25351 38.8021 11.0938C43.0729 12.9341 46.8056 15.4862 50 18.75L45.625 23.125C42.9514 20.4514 39.8521 18.3591 36.3271 16.848C32.8021 15.3368 29.0264 14.582 25 14.5834C20.9722 14.5834 17.1958 15.3389 13.6708 16.85C10.1458 18.3612 7.04722 20.4528 4.375 23.125ZM25 43.75L32.3437 36.3542C31.4062 35.4167 30.3125 34.6785 29.0625 34.1396C27.8125 33.6007 26.4583 33.332 25 33.3334C23.5417 33.3334 22.1875 33.6028 20.9375 34.1417C19.6875 34.6806 18.5938 35.4181 17.6563 36.3542L25 43.75Z" fill="white"/>
</svg>
