<svg width="50" height="50" viewBox="0 0 50 50" fill="none" xmlns="http://www.w3.org/2000/svg">
<path d="M6.45834 23.5417L13.9583 30.4167L11.875 40C11.6667 41.25 12.0833 42.5 13.125 43.125C13.5417 43.5417 14.1667 43.75 14.7917 43.75C15.2083 43.75 15.625 43.75 16.0417 43.5417C16.0417 43.5417 16.25 43.5417 16.25 43.3333L24.7917 38.5417L33.3333 43.3333C33.3333 43.3333 33.5417 43.3333 33.5417 43.5417C34.5833 43.9583 35.8333 43.9583 36.6667 43.3333C37.7083 42.7083 38.125 41.4583 37.9167 40.2083L35.8333 30.625C36.6667 30 37.9167 28.75 39.1667 27.5L43.125 23.9583L43.3333 23.75C44.1667 22.9167 44.375 21.6667 43.9583 20.625C43.5417 19.5833 42.7083 18.75 41.4583 18.5417H41.25L31.4583 17.5L27.5 8.54167C27.5 8.54167 27.5 8.33333 27.2917 8.33333C27.0833 6.875 26.0417 6.25 25 6.25C23.9583 6.25 22.9167 6.875 22.2917 7.91667C22.2917 7.91667 22.2917 8.125 22.0833 8.125L18.125 17.0833L8.33334 18.125H8.12501C7.08334 18.3333 6.04167 19.1667 5.62501 20.2083C5.41667 21.4583 5.62501 22.7083 6.45834 23.5417Z" fill="white"/>
</svg>
